<svg width="16" height="16" viewBox="0 0 16 16" fill="none" xmlns="http://www.w3.org/2000/svg">
<path fill-rule="evenodd" clip-rule="evenodd" d="M14.3541 4.64599C14.4006 4.69244 14.4376 4.74761 14.4628 4.80836C14.488 4.8691 14.501 4.93423 14.501 4.99999C14.501 5.06576 14.488 5.13088 14.4628 5.19163C14.4376 5.25237 14.4006 5.30755 14.3541 5.35399L8.35408 11.354C8.30764 11.4006 8.25246 11.4375 8.19172 11.4627C8.13097 11.4879 8.06585 11.5009 8.00008 11.5009C7.93432 11.5009 7.86919 11.4879 7.80845 11.4627C7.7477 11.4375 7.69253 11.4006 7.64608 11.354L1.64608 5.35399C1.5522 5.26011 1.49945 5.13277 1.49945 4.99999C1.49945 4.86722 1.5522 4.73988 1.64608 4.64599C1.73997 4.55211 1.86731 4.49936 2.00008 4.49936C2.13286 4.49936 2.2602 4.55211 2.35408 4.64599L8.00008 10.293L13.6461 4.64599C13.6925 4.59943 13.7477 4.56249 13.8084 4.53728C13.8692 4.51207 13.9343 4.4991 14.0001 4.4991C14.0659 4.4991 14.131 4.51207 14.1917 4.53728C14.2525 4.56249 14.3076 4.59943 14.3541 4.64599Z" fill="#212529"/>
</svg>
