<svg width="191" height="53" viewBox="0 0 191 53" fill="none" xmlns="http://www.w3.org/2000/svg">
<path d="M0 8C0 3.58172 3.58172 0 8 0H183C187.418 0 191 3.58172 191 8V45C191 49.4183 187.418 53 183 53H8C3.58173 53 0 49.4183 0 45V8Z" fill="#212529"/>
<path d="M32.0566 26.5195H37.0469V33.4434C36.2982 33.6973 35.5267 33.8861 34.7324 34.0098C33.9447 34.1335 33.0625 34.1953 32.0859 34.1953C30.6016 34.1953 29.3483 33.8991 28.3262 33.3066C27.3105 32.7142 26.5391 31.8711 26.0117 30.7773C25.4844 29.6771 25.2207 28.3717 25.2207 26.8613C25.2207 25.3835 25.5104 24.0944 26.0898 22.9941C26.6758 21.8939 27.5189 21.041 28.6191 20.4355C29.7259 19.8236 31.054 19.5176 32.6035 19.5176C33.3978 19.5176 34.1497 19.5924 34.8594 19.7422C35.5755 19.8854 36.2396 20.0905 36.8516 20.3574L36.2168 21.8027C35.6895 21.5749 35.1068 21.3796 34.4688 21.2168C33.8372 21.054 33.1829 20.9727 32.5059 20.9727C31.3405 20.9727 30.3411 21.2135 29.5078 21.6953C28.681 22.1771 28.0462 22.8574 27.6035 23.7363C27.1673 24.6152 26.9492 25.6569 26.9492 26.8613C26.9492 28.0527 27.1413 29.0911 27.5254 29.9766C27.9095 30.8555 28.5085 31.5391 29.3223 32.0273C30.1361 32.5156 31.1842 32.7598 32.4668 32.7598C33.1113 32.7598 33.6647 32.724 34.127 32.6523C34.5892 32.5742 35.0091 32.4831 35.3867 32.3789V28.0039H32.0566V26.5195ZM44.3809 23.1016C45.2923 23.1016 46.0736 23.3034 46.7246 23.707C47.3757 24.1107 47.8737 24.6771 48.2188 25.4062C48.5638 26.1289 48.7363 26.9753 48.7363 27.9453V28.9512H41.3438C41.3633 30.2077 41.6758 31.1647 42.2812 31.8223C42.8867 32.4798 43.7396 32.8086 44.8398 32.8086C45.5169 32.8086 46.1159 32.7467 46.6367 32.623C47.1576 32.4993 47.6979 32.3171 48.2578 32.0762V33.502C47.7174 33.7428 47.1803 33.9186 46.6465 34.0293C46.1191 34.14 45.4941 34.1953 44.7715 34.1953C43.7428 34.1953 42.8444 33.987 42.0762 33.5703C41.3145 33.1471 40.722 32.5286 40.2988 31.7148C39.8757 30.901 39.6641 29.9049 39.6641 28.7266C39.6641 27.5742 39.8561 26.5781 40.2402 25.7383C40.6309 24.8919 41.1777 24.2409 41.8809 23.7852C42.5905 23.3294 43.4238 23.1016 44.3809 23.1016ZM44.3613 24.4297C43.4954 24.4297 42.8053 24.7129 42.291 25.2793C41.7767 25.8457 41.4707 26.6367 41.373 27.6523H47.0371C47.0306 27.0143 46.9297 26.4544 46.7344 25.9727C46.5456 25.4844 46.2559 25.1068 45.8652 24.8398C45.4746 24.5664 44.9733 24.4297 44.3613 24.4297ZM54.9473 32.8672C55.2142 32.8672 55.4876 32.8444 55.7676 32.7988C56.0475 32.7533 56.2754 32.6979 56.4512 32.6328V33.8926C56.2624 33.9772 55.9987 34.0488 55.6602 34.1074C55.3281 34.166 55.0026 34.1953 54.6836 34.1953C54.1172 34.1953 53.6029 34.0977 53.1406 33.9023C52.6784 33.7005 52.3073 33.362 52.0273 32.8867C51.7539 32.4115 51.6172 31.7539 51.6172 30.9141V24.5664H50.0938V23.7754L51.627 23.1406L52.2715 20.8164H53.248V23.2969H56.3828V24.5664H53.248V30.8652C53.248 31.5358 53.401 32.0371 53.707 32.3691C54.0195 32.7012 54.4329 32.8672 54.9473 32.8672ZM72.1152 30.2012C72.1152 31.0475 71.9036 31.7702 71.4805 32.3691C71.0638 32.9616 70.4779 33.4141 69.7227 33.7266C68.9674 34.0391 68.0788 34.1953 67.0566 34.1953C66.5163 34.1953 66.0052 34.1693 65.5234 34.1172C65.0417 34.0651 64.599 33.9902 64.1953 33.8926C63.7917 33.7949 63.4368 33.6745 63.1309 33.5312V31.9395C63.6191 32.1413 64.2148 32.3301 64.918 32.5059C65.6211 32.6751 66.3568 32.7598 67.125 32.7598C67.8411 32.7598 68.4466 32.6654 68.9414 32.4766C69.4362 32.2812 69.8105 32.0046 70.0645 31.6465C70.3249 31.2819 70.4551 30.8457 70.4551 30.3379C70.4551 29.8496 70.3477 29.4427 70.1328 29.1172C69.918 28.7852 69.5599 28.4857 69.0586 28.2188C68.5638 27.9453 67.8867 27.6556 67.0273 27.3496C66.4219 27.1348 65.888 26.9004 65.4258 26.6465C64.9635 26.3861 64.5762 26.0931 64.2637 25.7676C63.9512 25.4421 63.7135 25.0645 63.5508 24.6348C63.3945 24.2051 63.3164 23.7135 63.3164 23.1602C63.3164 22.3984 63.5085 21.7474 63.8926 21.207C64.2832 20.6602 64.8203 20.2435 65.5039 19.957C66.194 19.6641 66.985 19.5176 67.877 19.5176C68.6387 19.5176 69.3418 19.5892 69.9863 19.7324C70.6374 19.8757 71.2331 20.0677 71.7734 20.3086L71.2559 21.7344C70.7415 21.5195 70.1947 21.3405 69.6152 21.1973C69.0423 21.054 68.4499 20.9824 67.8379 20.9824C67.2259 20.9824 66.7083 21.0736 66.2852 21.2559C65.8685 21.4316 65.5495 21.6823 65.3281 22.0078C65.1068 22.3333 64.9961 22.7207 64.9961 23.1699C64.9961 23.6712 65.1003 24.0879 65.3086 24.4199C65.5234 24.752 65.862 25.0482 66.3242 25.3086C66.793 25.5625 67.4115 25.8294 68.1797 26.1094C69.0195 26.4154 69.7324 26.7409 70.3184 27.0859C70.9043 27.4245 71.3503 27.8411 71.6562 28.3359C71.9622 28.8242 72.1152 29.446 72.1152 30.2012ZM78.248 32.8672C78.515 32.8672 78.7884 32.8444 79.0684 32.7988C79.3483 32.7533 79.5762 32.6979 79.752 32.6328V33.8926C79.5632 33.9772 79.2995 34.0488 78.9609 34.1074C78.6289 34.166 78.3034 34.1953 77.9844 34.1953C77.418 34.1953 76.9036 34.0977 76.4414 33.9023C75.9792 33.7005 75.6081 33.362 75.3281 32.8867C75.0547 32.4115 74.918 31.7539 74.918 30.9141V24.5664H73.3945V23.7754L74.9277 23.1406L75.5723 20.8164H76.5488V23.2969H79.6836V24.5664H76.5488V30.8652C76.5488 31.5358 76.7018 32.0371 77.0078 32.3691C77.3203 32.7012 77.7337 32.8672 78.248 32.8672ZM85.9238 23.1211C87.1999 23.1211 88.1471 23.4076 88.7656 23.9805C89.3841 24.5534 89.6934 25.4681 89.6934 26.7246V34H88.5117L88.1992 32.418H88.1211C87.8216 32.8086 87.5091 33.1374 87.1836 33.4043C86.8581 33.6647 86.4805 33.8633 86.0508 34C85.6276 34.1302 85.1068 34.1953 84.4883 34.1953C83.8372 34.1953 83.2578 34.0814 82.75 33.8535C82.2487 33.6257 81.8516 33.2806 81.5586 32.8184C81.2721 32.3561 81.1289 31.7702 81.1289 31.0605C81.1289 29.9928 81.5521 29.1725 82.3984 28.5996C83.2448 28.0267 84.5339 27.7142 86.2656 27.6621L88.1113 27.584V26.9297C88.1113 26.0052 87.9128 25.3574 87.5156 24.9863C87.1185 24.6152 86.5586 24.4297 85.8359 24.4297C85.276 24.4297 84.7422 24.5111 84.2344 24.6738C83.7266 24.8366 83.2448 25.0286 82.7891 25.25L82.291 24.0195C82.7728 23.7721 83.3262 23.5605 83.9512 23.3848C84.5762 23.209 85.2337 23.1211 85.9238 23.1211ZM88.0918 28.7266L86.4609 28.7949C85.1263 28.847 84.1855 29.0651 83.6387 29.4492C83.0918 29.8333 82.8184 30.377 82.8184 31.0801C82.8184 31.6921 83.0039 32.1445 83.375 32.4375C83.7461 32.7305 84.2376 32.877 84.8496 32.877C85.8001 32.877 86.5781 32.6133 87.1836 32.0859C87.7891 31.5586 88.0918 30.7676 88.0918 29.7129V28.7266ZM97.8965 23.1016C98.1113 23.1016 98.3359 23.1146 98.5703 23.1406C98.8047 23.1602 99.013 23.1895 99.1953 23.2285L98.9902 24.7324C98.8145 24.6868 98.6191 24.651 98.4043 24.625C98.1895 24.599 97.9876 24.5859 97.7988 24.5859C97.3691 24.5859 96.9622 24.6738 96.5781 24.8496C96.2005 25.0189 95.8685 25.2663 95.582 25.5918C95.2956 25.9108 95.071 26.2982 94.9082 26.7539C94.7454 27.2031 94.6641 27.7044 94.6641 28.2578V34H93.0332V23.2969H94.3809L94.5566 25.2695H94.625C94.8464 24.8724 95.1133 24.5111 95.4258 24.1855C95.7383 23.8535 96.0996 23.5898 96.5098 23.3945C96.9264 23.1992 97.3887 23.1016 97.8965 23.1016ZM104.674 32.8672C104.941 32.8672 105.214 32.8444 105.494 32.7988C105.774 32.7533 106.002 32.6979 106.178 32.6328V33.8926C105.989 33.9772 105.725 34.0488 105.387 34.1074C105.055 34.166 104.729 34.1953 104.41 34.1953C103.844 34.1953 103.329 34.0977 102.867 33.9023C102.405 33.7005 102.034 33.362 101.754 32.8867C101.48 32.4115 101.344 31.7539 101.344 30.9141V24.5664H99.8203V23.7754L101.354 23.1406L101.998 20.8164H102.975V23.2969H106.109V24.5664H102.975V30.8652C102.975 31.5358 103.128 32.0371 103.434 32.3691C103.746 32.7012 104.16 32.8672 104.674 32.8672ZM112.467 23.1016C113.378 23.1016 114.16 23.3034 114.811 23.707C115.462 24.1107 115.96 24.6771 116.305 25.4062C116.65 26.1289 116.822 26.9753 116.822 27.9453V28.9512H109.43C109.449 30.2077 109.762 31.1647 110.367 31.8223C110.973 32.4798 111.826 32.8086 112.926 32.8086C113.603 32.8086 114.202 32.7467 114.723 32.623C115.243 32.4993 115.784 32.3171 116.344 32.0762V33.502C115.803 33.7428 115.266 33.9186 114.732 34.0293C114.205 34.14 113.58 34.1953 112.857 34.1953C111.829 34.1953 110.93 33.987 110.162 33.5703C109.4 33.1471 108.808 32.5286 108.385 31.7148C107.962 30.901 107.75 29.9049 107.75 28.7266C107.75 27.5742 107.942 26.5781 108.326 25.7383C108.717 24.8919 109.264 24.2409 109.967 23.7852C110.676 23.3294 111.51 23.1016 112.467 23.1016ZM112.447 24.4297C111.581 24.4297 110.891 24.7129 110.377 25.2793C109.863 25.8457 109.557 26.6367 109.459 27.6523H115.123C115.117 27.0143 115.016 26.4544 114.82 25.9727C114.632 25.4844 114.342 25.1068 113.951 24.8398C113.561 24.5664 113.059 24.4297 112.447 24.4297ZM123.385 34.1953C122.031 34.1953 120.956 33.7331 120.162 32.8086C119.374 31.8841 118.98 30.5104 118.98 28.6875C118.98 26.8451 119.384 25.4551 120.191 24.5176C120.999 23.5736 122.073 23.1016 123.414 23.1016C123.98 23.1016 124.475 23.1764 124.898 23.3262C125.322 23.4759 125.686 23.6777 125.992 23.9316C126.298 24.179 126.555 24.4622 126.764 24.7812H126.881C126.855 24.5794 126.829 24.3027 126.803 23.9512C126.777 23.5996 126.764 23.3132 126.764 23.0918V18.8047H128.385V34H127.076L126.832 32.4766H126.764C126.562 32.7956 126.305 33.0853 125.992 33.3457C125.686 33.6061 125.318 33.8145 124.889 33.9707C124.465 34.1204 123.964 34.1953 123.385 34.1953ZM123.639 32.8477C124.785 32.8477 125.595 32.5221 126.07 31.8711C126.546 31.2201 126.783 30.2533 126.783 28.9707V28.6777C126.783 27.3171 126.555 26.2721 126.1 25.543C125.65 24.8138 124.83 24.4492 123.639 24.4492C122.643 24.4492 121.897 24.8333 121.402 25.6016C120.908 26.3633 120.66 27.4049 120.66 28.7266C120.66 30.0417 120.904 31.0573 121.393 31.7734C121.887 32.4896 122.636 32.8477 123.639 32.8477Z" fill="white"/>
<g clip-path="url(#clip0_12_128)">
<path fill-rule="evenodd" clip-rule="evenodd" d="M144.5 26.5C144.5 29.2848 145.606 31.9555 147.575 33.9246C149.545 35.8938 152.215 37 155 37C157.785 37 160.455 35.8938 162.425 33.9246C164.394 31.9555 165.5 29.2848 165.5 26.5C165.5 23.7152 164.394 21.0445 162.425 19.0754C160.455 17.1062 157.785 16 155 16C152.215 16 149.545 17.1062 147.575 19.0754C145.606 21.0445 144.5 23.7152 144.5 26.5ZM167 26.5C167 29.6826 165.736 32.7348 163.485 34.9853C161.235 37.2357 158.183 38.5 155 38.5C151.817 38.5 148.765 37.2357 146.515 34.9853C144.264 32.7348 143 29.6826 143 26.5C143 23.3174 144.264 20.2652 146.515 18.0147C148.765 15.7643 151.817 14.5 155 14.5C158.183 14.5 161.235 15.7643 163.485 18.0147C165.736 20.2652 167 23.3174 167 26.5ZM149.75 25.75C149.551 25.75 149.36 25.829 149.22 25.9697C149.079 26.1103 149 26.3011 149 26.5C149 26.6989 149.079 26.8897 149.22 27.0303C149.36 27.171 149.551 27.25 149.75 27.25H158.44L155.219 30.469C155.149 30.5387 155.094 30.6215 155.056 30.7126C155.018 30.8037 154.999 30.9014 154.999 31C154.999 31.0986 155.018 31.1963 155.056 31.2874C155.094 31.3785 155.149 31.4613 155.219 31.531C155.289 31.6007 155.372 31.656 155.463 31.6938C155.554 31.7315 155.651 31.7509 155.75 31.7509C155.849 31.7509 155.946 31.7315 156.037 31.6938C156.128 31.656 156.211 31.6007 156.281 31.531L160.781 27.031C160.851 26.9613 160.906 26.8786 160.944 26.7874C160.982 26.6963 161.001 26.5987 161.001 26.5C161.001 26.4013 160.982 26.3037 160.944 26.2125C160.906 26.1214 160.851 26.0387 160.781 25.969L156.281 21.469C156.211 21.3993 156.128 21.344 156.037 21.3062C155.946 21.2685 155.849 21.2491 155.75 21.2491C155.651 21.2491 155.554 21.2685 155.463 21.3062C155.372 21.344 155.289 21.3993 155.219 21.469C155.149 21.5387 155.094 21.6215 155.056 21.7126C155.018 21.8037 154.999 21.9014 154.999 22C154.999 22.0986 155.018 22.1963 155.056 22.2874C155.094 22.3785 155.149 22.4613 155.219 22.531L158.44 25.75H149.75Z" fill="white"/>
</g>
<defs>
<clipPath id="clip0_12_128">
<rect width="24" height="24" fill="white" transform="translate(143 14.5)"/>
</clipPath>
</defs>
</svg>
