<svg width="923" height="84" viewBox="0 0 923 84" fill="none" xmlns="http://www.w3.org/2000/svg">
<rect width="923" height="84" fill="#7025FB"/>
<path d="M85.2331 48.8C84.4998 48.8 83.9331 48.6 83.5331 48.2C83.1331 47.7833 82.9331 47.2083 82.9331 46.475V33.275C82.9331 32.525 83.1331 31.95 83.5331 31.55C83.9498 31.15 84.5248 30.95 85.2581 30.95H91.4081C93.4081 30.95 94.9498 31.4417 96.0331 32.425C97.1331 33.3917 97.6831 34.7417 97.6831 36.475C97.6831 37.5917 97.4331 38.5667 96.9331 39.4C96.4498 40.2167 95.7414 40.85 94.8081 41.3C93.8914 41.7333 92.7581 41.95 91.4081 41.95L91.6081 41.5H92.8081C93.5248 41.5 94.1581 41.675 94.7081 42.025C95.2581 42.3583 95.7164 42.875 96.0831 43.575L97.3331 45.825C97.5998 46.3083 97.7248 46.7833 97.7081 47.25C97.6914 47.7 97.5081 48.075 97.1581 48.375C96.8248 48.6583 96.3331 48.8 95.6831 48.8C95.0331 48.8 94.4998 48.6667 94.0831 48.4C93.6831 48.1333 93.3248 47.7167 93.0081 47.15L90.7331 42.975C90.5331 42.6083 90.2748 42.3583 89.9581 42.225C89.6581 42.075 89.3081 42 88.9081 42H87.5331V46.475C87.5331 47.2083 87.3414 47.7833 86.9581 48.2C86.5748 48.6 85.9998 48.8 85.2331 48.8ZM87.5331 38.75H90.5831C91.4664 38.75 92.1414 38.575 92.6081 38.225C93.0748 37.875 93.3081 37.3333 93.3081 36.6C93.3081 35.9 93.0748 35.375 92.6081 35.025C92.1414 34.6583 91.4664 34.475 90.5831 34.475H87.5331V38.75Z" fill="white"/>
<path d="M106.643 48.85C105.143 48.85 103.843 48.5917 102.743 48.075C101.659 47.5417 100.826 46.7917 100.243 45.825C99.6593 44.8583 99.3677 43.7167 99.3677 42.4C99.3677 41.1333 99.6427 40.025 100.193 39.075C100.759 38.1083 101.526 37.3583 102.493 36.825C103.476 36.275 104.593 36 105.843 36C106.759 36 107.593 36.15 108.343 36.45C109.093 36.7333 109.734 37.1583 110.268 37.725C110.801 38.275 111.201 38.9417 111.468 39.725C111.751 40.5083 111.893 41.3833 111.893 42.35C111.893 42.6833 111.801 42.9333 111.618 43.1C111.434 43.25 111.143 43.325 110.743 43.325H103.093V41.225H108.643L108.243 41.55C108.243 40.9333 108.159 40.4333 107.993 40.05C107.826 39.6667 107.576 39.375 107.243 39.175C106.926 38.975 106.526 38.875 106.043 38.875C105.526 38.875 105.076 39 104.693 39.25C104.326 39.4833 104.043 39.8333 103.843 40.3C103.643 40.7667 103.543 41.35 103.543 42.05V42.275C103.543 43.4583 103.801 44.3083 104.318 44.825C104.851 45.325 105.668 45.575 106.768 45.575C107.134 45.575 107.551 45.5333 108.018 45.45C108.501 45.35 108.959 45.2167 109.393 45.05C109.826 44.8833 110.201 44.8583 110.518 44.975C110.834 45.075 111.076 45.2583 111.243 45.525C111.426 45.775 111.526 46.0667 111.543 46.4C111.559 46.7167 111.484 47.0333 111.318 47.35C111.151 47.65 110.876 47.8833 110.493 48.05C109.909 48.3167 109.284 48.5167 108.618 48.65C107.968 48.7833 107.309 48.85 106.643 48.85Z" fill="white"/>
<path d="M118.61 48.85C117.56 48.85 116.627 48.5917 115.81 48.075C115.01 47.5583 114.377 46.8167 113.91 45.85C113.46 44.8833 113.235 43.7417 113.235 42.425C113.235 41.075 113.46 39.925 113.91 38.975C114.377 38.025 115.01 37.2917 115.81 36.775C116.627 36.2583 117.56 36 118.61 36C119.527 36 120.352 36.2167 121.085 36.65C121.818 37.0833 122.31 37.6417 122.56 38.325H122.285V32.975C122.285 32.2417 122.477 31.6833 122.86 31.3C123.243 30.9167 123.793 30.725 124.51 30.725C125.21 30.725 125.752 30.9167 126.135 31.3C126.535 31.6833 126.735 32.2417 126.735 32.975V46.55C126.735 47.2833 126.543 47.8417 126.16 48.225C125.793 48.6083 125.252 48.8 124.535 48.8C123.835 48.8 123.293 48.6083 122.91 48.225C122.527 47.8417 122.335 47.2833 122.335 46.55V45.125L122.61 46.35C122.377 47.1 121.885 47.7083 121.135 48.175C120.402 48.625 119.56 48.85 118.61 48.85ZM120.035 45.575C120.485 45.575 120.885 45.4667 121.235 45.25C121.585 45.0167 121.852 44.675 122.035 44.225C122.235 43.7583 122.335 43.1583 122.335 42.425C122.335 41.3083 122.118 40.5083 121.685 40.025C121.252 39.525 120.702 39.275 120.035 39.275C119.585 39.275 119.185 39.3833 118.835 39.6C118.485 39.8167 118.21 40.1583 118.01 40.625C117.81 41.075 117.71 41.675 117.71 42.425C117.71 43.525 117.927 44.325 118.36 44.825C118.793 45.325 119.352 45.575 120.035 45.575Z" fill="white"/>
<path d="M137.413 48.85C136.463 48.85 135.613 48.625 134.863 48.175C134.129 47.7083 133.646 47.1 133.413 46.35L133.688 45.325V46.55C133.688 47.2833 133.496 47.8417 133.113 48.225C132.746 48.6083 132.213 48.8 131.513 48.8C130.796 48.8 130.246 48.6083 129.863 48.225C129.496 47.8417 129.313 47.2833 129.313 46.55V32.975C129.313 32.2417 129.504 31.6833 129.888 31.3C130.271 30.9167 130.813 30.725 131.513 30.725C132.229 30.725 132.779 30.9167 133.163 31.3C133.563 31.6833 133.763 32.2417 133.763 32.975V38.325H133.463C133.713 37.6417 134.204 37.0833 134.938 36.65C135.671 36.2167 136.496 36 137.413 36C138.479 36 139.413 36.2583 140.213 36.775C141.029 37.2917 141.663 38.025 142.113 38.975C142.563 39.925 142.788 41.075 142.788 42.425C142.788 43.7417 142.563 44.8833 142.113 45.85C141.663 46.8167 141.029 47.5583 140.213 48.075C139.413 48.5917 138.479 48.85 137.413 48.85ZM136.013 45.575C136.463 45.575 136.854 45.4667 137.188 45.25C137.538 45.0167 137.813 44.675 138.013 44.225C138.213 43.7583 138.313 43.1583 138.313 42.425C138.313 41.3083 138.096 40.5083 137.663 40.025C137.229 39.525 136.679 39.275 136.013 39.275C135.563 39.275 135.163 39.3833 134.813 39.6C134.463 39.8167 134.188 40.1583 133.988 40.625C133.788 41.075 133.688 41.675 133.688 42.425C133.688 43.525 133.904 44.325 134.338 44.825C134.771 45.325 135.329 45.575 136.013 45.575Z" fill="white"/>
<path d="M151.516 48.85C150.016 48.85 148.716 48.5917 147.616 48.075C146.532 47.5417 145.699 46.7917 145.116 45.825C144.532 44.8583 144.241 43.7167 144.241 42.4C144.241 41.1333 144.516 40.025 145.066 39.075C145.632 38.1083 146.399 37.3583 147.366 36.825C148.349 36.275 149.466 36 150.716 36C151.632 36 152.466 36.15 153.216 36.45C153.966 36.7333 154.607 37.1583 155.141 37.725C155.674 38.275 156.074 38.9417 156.341 39.725C156.624 40.5083 156.766 41.3833 156.766 42.35C156.766 42.6833 156.674 42.9333 156.491 43.1C156.307 43.25 156.016 43.325 155.616 43.325H147.966V41.225H153.516L153.116 41.55C153.116 40.9333 153.032 40.4333 152.866 40.05C152.699 39.6667 152.449 39.375 152.116 39.175C151.799 38.975 151.399 38.875 150.916 38.875C150.399 38.875 149.949 39 149.566 39.25C149.199 39.4833 148.916 39.8333 148.716 40.3C148.516 40.7667 148.416 41.35 148.416 42.05V42.275C148.416 43.4583 148.674 44.3083 149.191 44.825C149.724 45.325 150.541 45.575 151.641 45.575C152.007 45.575 152.424 45.5333 152.891 45.45C153.374 45.35 153.832 45.2167 154.266 45.05C154.699 44.8833 155.074 44.8583 155.391 44.975C155.707 45.075 155.949 45.2583 156.116 45.525C156.299 45.775 156.399 46.0667 156.416 46.4C156.432 46.7167 156.357 47.0333 156.191 47.35C156.024 47.65 155.749 47.8833 155.366 48.05C154.782 48.3167 154.157 48.5167 153.491 48.65C152.841 48.7833 152.182 48.85 151.516 48.85Z" fill="white"/>
<path d="M160.958 48.8C160.225 48.8 159.658 48.6083 159.258 48.225C158.875 47.8417 158.683 47.2833 158.683 46.55V38.275C158.683 37.5583 158.866 37.0083 159.233 36.625C159.616 36.2417 160.158 36.05 160.858 36.05C161.558 36.05 162.091 36.2417 162.458 36.625C162.825 37.0083 163.008 37.5583 163.008 38.275V39.3H162.758C162.925 38.3 163.35 37.5083 164.033 36.925C164.733 36.3417 165.6 36.0333 166.633 36C167.116 35.9833 167.475 36.1083 167.708 36.375C167.958 36.625 168.091 37.1 168.108 37.8C168.108 38.4 167.983 38.875 167.733 39.225C167.483 39.575 167.008 39.7833 166.308 39.85L165.733 39.9C164.85 39.9833 164.208 40.2333 163.808 40.65C163.408 41.05 163.208 41.65 163.208 42.45V46.55C163.208 47.2833 163.016 47.8417 162.633 48.225C162.25 48.6083 161.691 48.8 160.958 48.8Z" fill="white"/>
<path d="M171.798 48.8C171.064 48.8 170.498 48.6083 170.098 48.225C169.714 47.8417 169.523 47.2833 169.523 46.55V38.275C169.523 37.5583 169.706 37.0083 170.073 36.625C170.456 36.2417 170.998 36.05 171.698 36.05C172.398 36.05 172.931 36.2417 173.298 36.625C173.664 37.0083 173.848 37.5583 173.848 38.275V39.3H173.598C173.764 38.3 174.189 37.5083 174.873 36.925C175.573 36.3417 176.439 36.0333 177.473 36C177.956 35.9833 178.314 36.1083 178.548 36.375C178.798 36.625 178.931 37.1 178.948 37.8C178.948 38.4 178.823 38.875 178.573 39.225C178.323 39.575 177.848 39.7833 177.148 39.85L176.573 39.9C175.689 39.9833 175.048 40.2333 174.648 40.65C174.248 41.05 174.048 41.65 174.048 42.45V46.55C174.048 47.2833 173.856 47.8417 173.473 48.225C173.089 48.6083 172.531 48.8 171.798 48.8Z" fill="white"/>
<path d="M184.694 53.3C184.178 53.3 183.761 53.1667 183.444 52.9C183.128 52.6333 182.928 52.2833 182.844 51.85C182.778 51.4167 182.853 50.9583 183.069 50.475L184.744 46.85V48.65L180.469 38.875C180.253 38.375 180.178 37.9083 180.244 37.475C180.328 37.0417 180.553 36.7 180.919 36.45C181.286 36.1833 181.786 36.05 182.419 36.05C182.953 36.05 183.378 36.175 183.694 36.425C184.028 36.6583 184.328 37.125 184.594 37.825L187.094 44.325H186.244L188.894 37.8C189.161 37.1167 189.461 36.6583 189.794 36.425C190.144 36.175 190.611 36.05 191.194 36.05C191.694 36.05 192.094 36.1833 192.394 36.45C192.694 36.7 192.878 37.0417 192.944 37.475C193.011 37.9083 192.936 38.375 192.719 38.875L187.044 51.625C186.744 52.2917 186.411 52.7333 186.044 52.95C185.694 53.1833 185.244 53.3 184.694 53.3Z" fill="white"/>
<path d="M204.398 48.8C203.665 48.8 203.098 48.6 202.698 48.2C202.298 47.7833 202.098 47.2083 202.098 46.475V33.05C202.098 32.2833 202.298 31.7083 202.698 31.325C203.098 30.925 203.665 30.725 204.398 30.725C205.148 30.725 205.715 30.925 206.098 31.325C206.498 31.7083 206.698 32.2833 206.698 33.05V38.5H206.748L212.823 31.8C213.14 31.4667 213.473 31.2083 213.823 31.025C214.19 30.825 214.598 30.725 215.048 30.725C215.748 30.725 216.248 30.9083 216.548 31.275C216.865 31.625 217.006 32.0417 216.973 32.525C216.956 32.9917 216.765 33.425 216.398 33.825L210.348 40.25V38.375L216.698 45.55C217.131 46.0333 217.348 46.5333 217.348 47.05C217.348 47.55 217.173 47.9667 216.823 48.3C216.49 48.6333 215.99 48.8 215.323 48.8C214.756 48.8 214.298 48.6917 213.948 48.475C213.615 48.2417 213.248 47.9 212.848 47.45L206.748 40.625H206.698V46.475C206.698 47.2083 206.506 47.7833 206.123 48.2C205.74 48.6 205.165 48.8 204.398 48.8Z" fill="white"/>
<path d="M221.796 48.8C221.096 48.8 220.554 48.6083 220.171 48.225C219.788 47.8417 219.596 47.2833 219.596 46.55V38.275C219.596 37.5583 219.779 37.0083 220.146 36.625C220.529 36.2417 221.071 36.05 221.771 36.05C222.471 36.05 223.004 36.2417 223.371 36.625C223.738 37.0083 223.921 37.5583 223.921 38.275V39.45L223.646 38.425C224.046 37.6417 224.613 37.0417 225.346 36.625C226.096 36.2083 226.946 36 227.896 36C228.879 36 229.688 36.1917 230.321 36.575C230.954 36.9417 231.429 37.525 231.746 38.325C232.063 39.1083 232.221 40.1 232.221 41.3V46.55C232.221 47.2833 232.029 47.8417 231.646 48.225C231.263 48.6083 230.713 48.8 229.996 48.8C229.279 48.8 228.729 48.6083 228.346 48.225C227.963 47.8417 227.771 47.2833 227.771 46.55V41.475C227.771 40.725 227.638 40.1917 227.371 39.875C227.121 39.5583 226.746 39.4 226.246 39.4C225.579 39.4 225.046 39.6167 224.646 40.05C224.246 40.4667 224.046 41.0333 224.046 41.75V46.55C224.046 48.05 223.296 48.8 221.796 48.8Z" fill="white"/>
<path d="M236.957 48.8C236.257 48.8 235.715 48.5917 235.332 48.175C234.949 47.7583 234.757 47.1583 234.757 46.375V38.475C234.757 37.6917 234.949 37.0917 235.332 36.675C235.715 36.2583 236.257 36.05 236.957 36.05C237.674 36.05 238.224 36.2583 238.607 36.675C239.007 37.0917 239.207 37.6917 239.207 38.475V46.375C239.207 47.1583 239.015 47.7583 238.632 48.175C238.249 48.5917 237.69 48.8 236.957 48.8ZM236.957 34.275C236.174 34.275 235.565 34.0917 235.132 33.725C234.715 33.3583 234.507 32.825 234.507 32.125C234.507 31.4417 234.715 30.9167 235.132 30.55C235.565 30.1833 236.174 30 236.957 30C237.774 30 238.39 30.1833 238.807 30.55C239.224 30.9167 239.432 31.4417 239.432 32.125C239.432 32.825 239.224 33.3583 238.807 33.725C238.39 34.0917 237.774 34.275 236.957 34.275Z" fill="white"/>
<path d="M247.888 53.35C246.972 53.35 246.113 53.2833 245.313 53.15C244.513 53.0333 243.822 52.8583 243.238 52.625C242.755 52.4583 242.413 52.2167 242.213 51.9C242.013 51.5833 241.922 51.25 241.938 50.9C241.955 50.55 242.047 50.2333 242.213 49.95C242.397 49.6667 242.638 49.4583 242.938 49.325C243.238 49.2083 243.572 49.2167 243.938 49.35C244.672 49.65 245.338 49.8417 245.938 49.925C246.538 50.025 247.047 50.075 247.463 50.075C248.48 50.075 249.238 49.8583 249.738 49.425C250.255 49.0083 250.513 48.35 250.513 47.45V45.875H250.713C250.463 46.575 249.955 47.15 249.188 47.6C248.422 48.0333 247.588 48.25 246.688 48.25C245.588 48.25 244.63 48 243.813 47.5C242.997 46.9833 242.355 46.2667 241.888 45.35C241.438 44.4333 241.213 43.3583 241.213 42.125C241.213 41.1917 241.347 40.35 241.613 39.6C241.88 38.85 242.247 38.2083 242.713 37.675C243.197 37.1417 243.772 36.7333 244.438 36.45C245.122 36.15 245.872 36 246.688 36C247.622 36 248.455 36.2167 249.188 36.65C249.938 37.0833 250.438 37.65 250.688 38.35L250.438 39.375V38.275C250.438 37.5583 250.63 37.0083 251.013 36.625C251.413 36.2417 251.963 36.05 252.663 36.05C253.363 36.05 253.897 36.2417 254.263 36.625C254.647 37.0083 254.838 37.5583 254.838 38.275V46.925C254.838 49.0583 254.238 50.6583 253.038 51.725C251.838 52.8083 250.122 53.35 247.888 53.35ZM248.063 44.975C248.563 44.975 248.988 44.8667 249.338 44.65C249.688 44.4167 249.963 44.0917 250.163 43.675C250.363 43.2417 250.463 42.725 250.463 42.125C250.463 41.225 250.247 40.525 249.813 40.025C249.38 39.525 248.797 39.275 248.063 39.275C247.597 39.275 247.18 39.3917 246.813 39.625C246.447 39.8417 246.163 40.1667 245.963 40.6C245.78 41.0167 245.688 41.525 245.688 42.125C245.688 43.025 245.905 43.725 246.338 44.225C246.772 44.725 247.347 44.975 248.063 44.975Z" fill="white"/>
<path d="M259.638 48.8C258.938 48.8 258.396 48.6083 258.013 48.225C257.629 47.8417 257.438 47.2833 257.438 46.55V32.975C257.438 32.2417 257.629 31.6833 258.013 31.3C258.396 30.9167 258.938 30.725 259.638 30.725C260.354 30.725 260.904 30.9167 261.288 31.3C261.688 31.6833 261.888 32.2417 261.888 32.975V38.425H261.488C261.888 37.6417 262.454 37.0417 263.188 36.625C263.938 36.2083 264.788 36 265.738 36C266.721 36 267.529 36.1917 268.163 36.575C268.796 36.9417 269.271 37.525 269.588 38.325C269.904 39.1083 270.063 40.1 270.063 41.3V46.55C270.063 47.2833 269.871 47.8417 269.488 48.225C269.104 48.6083 268.554 48.8 267.838 48.8C267.121 48.8 266.571 48.6083 266.188 48.225C265.804 47.8417 265.613 47.2833 265.613 46.55V41.475C265.613 40.725 265.479 40.1917 265.213 39.875C264.963 39.5583 264.588 39.4 264.088 39.4C263.421 39.4 262.888 39.6167 262.488 40.05C262.088 40.4667 261.888 41.0333 261.888 41.75V46.55C261.888 48.05 261.138 48.8 259.638 48.8Z" fill="white"/>
<path d="M279.049 48.85C277.799 48.85 276.766 48.6583 275.949 48.275C275.149 47.8917 274.549 47.3167 274.149 46.55C273.749 45.7667 273.549 44.7917 273.549 43.625V39.55H272.699C272.166 39.55 271.749 39.4083 271.449 39.125C271.166 38.8417 271.024 38.4333 271.024 37.9C271.024 37.3667 271.166 36.9667 271.449 36.7C271.749 36.4167 272.166 36.275 272.699 36.275H273.549V34.725C273.549 33.9917 273.741 33.4333 274.124 33.05C274.507 32.6667 275.057 32.475 275.774 32.475C276.491 32.475 277.041 32.6667 277.424 33.05C277.807 33.4333 277.999 33.9917 277.999 34.725V36.275H280.049C280.599 36.275 281.016 36.4167 281.299 36.7C281.599 36.9667 281.749 37.3667 281.749 37.9C281.749 38.4333 281.599 38.8417 281.299 39.125C281.016 39.4083 280.599 39.55 280.049 39.55H277.999V43.475C277.999 44.0917 278.141 44.55 278.424 44.85C278.724 45.1333 279.191 45.275 279.824 45.275C280.057 45.275 280.282 45.25 280.499 45.2C280.716 45.15 280.916 45.125 281.099 45.125C281.366 45.1083 281.582 45.1917 281.749 45.375C281.916 45.5417 281.999 45.9333 281.999 46.55C281.999 47.05 281.924 47.475 281.774 47.825C281.624 48.1583 281.357 48.4 280.974 48.55C280.741 48.6333 280.424 48.7 280.024 48.75C279.624 48.8167 279.299 48.85 279.049 48.85Z" fill="white"/>
<path d="M299.597 48.85C297.647 48.85 295.972 48.475 294.572 47.725C293.172 46.975 292.097 45.9167 291.347 44.55C290.613 43.1833 290.247 41.5833 290.247 39.75C290.247 38.3833 290.455 37.1417 290.872 36.025C291.305 34.9083 291.922 33.95 292.722 33.15C293.538 32.35 294.522 31.7417 295.672 31.325C296.838 30.8917 298.147 30.675 299.597 30.675C300.363 30.675 301.155 30.7667 301.972 30.95C302.805 31.1167 303.538 31.375 304.172 31.725C304.638 31.975 304.963 32.2917 305.147 32.675C305.33 33.0583 305.388 33.45 305.322 33.85C305.272 34.25 305.13 34.6083 304.897 34.925C304.663 35.2417 304.363 35.4583 303.997 35.575C303.63 35.675 303.23 35.6167 302.797 35.4C302.297 35.1667 301.797 34.9917 301.297 34.875C300.813 34.7417 300.305 34.675 299.772 34.675C298.738 34.675 297.872 34.875 297.172 35.275C296.488 35.6583 295.972 36.225 295.622 36.975C295.272 37.725 295.097 38.65 295.097 39.75C295.097 40.85 295.272 41.7833 295.622 42.55C295.972 43.3 296.488 43.875 297.172 44.275C297.872 44.6583 298.738 44.85 299.772 44.85C300.205 44.85 300.672 44.8 301.172 44.7C301.672 44.5833 302.163 44.4083 302.647 44.175C303.147 43.9583 303.588 43.9 303.972 44C304.372 44.1 304.688 44.3 304.922 44.6C305.172 44.9 305.33 45.25 305.397 45.65C305.463 46.0333 305.405 46.4167 305.222 46.8C305.055 47.1833 304.755 47.4917 304.322 47.725C303.738 48.075 303.013 48.35 302.147 48.55C301.297 48.75 300.447 48.85 299.597 48.85Z" fill="white"/>
<path d="M311.867 48.85C310.8 48.85 309.925 48.6583 309.242 48.275C308.559 47.875 308.042 47.2833 307.692 46.5C307.359 45.7167 307.192 44.725 307.192 43.525V38.275C307.192 37.5417 307.384 36.9917 307.767 36.625C308.15 36.2417 308.7 36.05 309.417 36.05C310.134 36.05 310.684 36.2417 311.067 36.625C311.45 36.9917 311.642 37.5417 311.642 38.275V43.65C311.642 44.25 311.767 44.7 312.017 45C312.267 45.3 312.659 45.45 313.192 45.45C313.792 45.45 314.284 45.2333 314.667 44.8C315.05 44.3667 315.242 43.7917 315.242 43.075V38.275C315.242 37.5417 315.434 36.9917 315.817 36.625C316.2 36.2417 316.75 36.05 317.467 36.05C318.184 36.05 318.734 36.2417 319.117 36.625C319.5 36.9917 319.692 37.5417 319.692 38.275V46.55C319.692 48.05 318.975 48.8 317.542 48.8C316.842 48.8 316.3 48.6083 315.917 48.225C315.534 47.8417 315.342 47.2833 315.342 46.55V45.1L315.742 46.325C315.375 47.1417 314.859 47.7667 314.192 48.2C313.542 48.6333 312.767 48.85 311.867 48.85Z" fill="white"/>
<path d="M324.482 53.3C323.782 53.3 323.24 53.1083 322.857 52.725C322.473 52.3417 322.282 51.7833 322.282 51.05V38.275C322.282 37.5583 322.465 37.0083 322.832 36.625C323.215 36.2417 323.757 36.05 324.457 36.05C325.173 36.05 325.715 36.2417 326.082 36.625C326.465 37.0083 326.657 37.5583 326.657 38.275V39.725L326.382 38.5C326.615 37.75 327.098 37.15 327.832 36.7C328.582 36.2333 329.432 36 330.382 36C331.448 36 332.382 36.2583 333.182 36.775C333.998 37.2917 334.632 38.025 335.082 38.975C335.532 39.925 335.757 41.075 335.757 42.425C335.757 43.7417 335.532 44.8833 335.082 45.85C334.632 46.8167 333.998 47.5583 333.182 48.075C332.382 48.5917 331.448 48.85 330.382 48.85C329.465 48.85 328.64 48.6333 327.907 48.2C327.173 47.7667 326.682 47.2 326.432 46.5H326.732V51.05C326.732 51.7833 326.532 52.3417 326.132 52.725C325.748 53.1083 325.198 53.3 324.482 53.3ZM328.982 45.575C329.432 45.575 329.823 45.4667 330.157 45.25C330.507 45.0167 330.782 44.675 330.982 44.225C331.182 43.7583 331.282 43.1583 331.282 42.425C331.282 41.3083 331.065 40.5083 330.632 40.025C330.198 39.525 329.648 39.275 328.982 39.275C328.532 39.275 328.132 39.3833 327.782 39.6C327.432 39.8167 327.157 40.1583 326.957 40.625C326.757 41.075 326.657 41.675 326.657 42.425C326.657 43.525 326.873 44.325 327.307 44.825C327.74 45.325 328.298 45.575 328.982 45.575Z" fill="white"/>
<path d="M72.8333 31.325C73.3196 31.325 73.7859 31.5182 74.1297 31.862C74.4735 32.2058 74.6667 32.6721 74.6667 33.1584C74.6667 33.9009 74.2083 34.5334 73.5942 34.8267L71.9167 40.6292V45.075H62.75V40.6292L61.0725 34.8267C60.4583 34.5334 60 33.9009 60 33.1584C60 32.6721 60.1932 32.2058 60.537 31.862C60.8808 31.5182 61.3471 31.325 61.8333 31.325C62.3196 31.325 62.7859 31.5182 63.1297 31.862C63.4735 32.2058 63.6667 32.6721 63.6667 33.1584C63.6667 33.6167 63.5017 34.0292 63.2083 34.35L65.775 37.1459L66.2608 33.7267C65.8025 33.3967 65.5 32.8559 65.5 32.2417C65.5 31.7555 65.6932 31.2891 66.037 30.9453C66.3808 30.6015 66.8471 30.4084 67.3333 30.4084C67.8196 30.4084 68.2859 30.6015 68.6297 30.9453C68.9735 31.2891 69.1667 31.7555 69.1667 32.2417C69.1667 32.8559 68.8642 33.3967 68.4058 33.7267L68.8917 37.1459L71.4308 34.3409C71.1522 34.0099 70.9996 33.591 71 33.1584C71 32.6721 71.1932 32.2058 71.537 31.862C71.8808 31.5182 72.3471 31.325 72.8333 31.325ZM60.9167 46.9084H73.75V48.7417H60.9167V46.9084Z" fill="white"/>
</svg>
