<svg width="128" height="53" viewBox="0 0 128 53" fill="none" xmlns="http://www.w3.org/2000/svg">
<path d="M0 8C0 3.58172 3.58172 0 8 0H120C124.418 0 128 3.58172 128 8V45C128 49.4183 124.418 53 120 53H8C3.58172 53 0 49.4183 0 45V8Z" fill="#212529"/>
<path d="M37.1152 34H35.2012L27.418 22.0078H27.3398C27.3594 22.3268 27.3822 22.6914 27.4082 23.1016C27.4342 23.5052 27.4538 23.9382 27.4668 24.4004C27.4863 24.8561 27.4961 25.3216 27.4961 25.7969V34H25.9531V19.7227H27.8574L35.6113 31.6758H35.6797C35.6667 31.4479 35.6504 31.1257 35.6309 30.709C35.6113 30.2858 35.5918 29.8333 35.5723 29.3516C35.5592 28.8633 35.5527 28.4108 35.5527 27.9941V19.7227H37.1152V34ZM44.8887 23.1016C45.8001 23.1016 46.5814 23.3034 47.2324 23.707C47.8835 24.1107 48.3815 24.6771 48.7266 25.4062C49.0716 26.1289 49.2441 26.9753 49.2441 27.9453V28.9512H41.8516C41.8711 30.2077 42.1836 31.1647 42.7891 31.8223C43.3945 32.4798 44.2474 32.8086 45.3477 32.8086C46.0247 32.8086 46.6237 32.7467 47.1445 32.623C47.6654 32.4993 48.2057 32.3171 48.7656 32.0762V33.502C48.2253 33.7428 47.6882 33.9186 47.1543 34.0293C46.627 34.14 46.002 34.1953 45.2793 34.1953C44.2507 34.1953 43.3522 33.987 42.584 33.5703C41.8223 33.1471 41.2298 32.5286 40.8066 31.7148C40.3835 30.901 40.1719 29.9049 40.1719 28.7266C40.1719 27.5742 40.3639 26.5781 40.748 25.7383C41.1387 24.8919 41.6855 24.2409 42.3887 23.7852C43.0983 23.3294 43.9316 23.1016 44.8887 23.1016ZM44.8691 24.4297C44.0033 24.4297 43.3132 24.7129 42.7988 25.2793C42.2845 25.8457 41.9785 26.6367 41.8809 27.6523H47.5449C47.5384 27.0143 47.4375 26.4544 47.2422 25.9727C47.0534 25.4844 46.7637 25.1068 46.373 24.8398C45.9824 24.5664 45.4811 24.4297 44.8691 24.4297ZM54.5469 28.5215L50.8457 23.2969H52.7012L55.5234 27.418L58.3359 23.2969H60.1719L56.4707 28.5215L60.377 34H58.5215L55.5234 29.6348L52.5059 34H50.6699L54.5469 28.5215ZM65.9238 32.8672C66.1908 32.8672 66.4642 32.8444 66.7441 32.7988C67.0241 32.7533 67.252 32.6979 67.4277 32.6328V33.8926C67.2389 33.9772 66.9753 34.0488 66.6367 34.1074C66.3047 34.166 65.9792 34.1953 65.6602 34.1953C65.0938 34.1953 64.5794 34.0977 64.1172 33.9023C63.6549 33.7005 63.2839 33.362 63.0039 32.8867C62.7305 32.4115 62.5938 31.7539 62.5938 30.9141V24.5664H61.0703V23.7754L62.6035 23.1406L63.248 20.8164H64.2246V23.2969H67.3594V24.5664H64.2246V30.8652C64.2246 31.5358 64.3776 32.0371 64.6836 32.3691C64.9961 32.7012 65.4095 32.8672 65.9238 32.8672Z" fill="white"/>
<g clip-path="url(#clip0_46_2883)">
<path fill-rule="evenodd" clip-rule="evenodd" d="M81.5 26.5C81.5 29.2848 82.6062 31.9555 84.5754 33.9246C86.5445 35.8938 89.2152 37 92 37C94.7848 37 97.4555 35.8938 99.4246 33.9246C101.394 31.9555 102.5 29.2848 102.5 26.5C102.5 23.7152 101.394 21.0445 99.4246 19.0754C97.4555 17.1062 94.7848 16 92 16C89.2152 16 86.5445 17.1062 84.5754 19.0754C82.6062 21.0445 81.5 23.7152 81.5 26.5ZM104 26.5C104 29.6826 102.736 32.7348 100.485 34.9853C98.2348 37.2357 95.1826 38.5 92 38.5C88.8174 38.5 85.7652 37.2357 83.5147 34.9853C81.2643 32.7348 80 29.6826 80 26.5C80 23.3174 81.2643 20.2652 83.5147 18.0147C85.7652 15.7643 88.8174 14.5 92 14.5C95.1826 14.5 98.2348 15.7643 100.485 18.0147C102.736 20.2652 104 23.3174 104 26.5ZM86.75 25.75C86.5511 25.75 86.3603 25.829 86.2197 25.9697C86.079 26.1103 86 26.3011 86 26.5C86 26.6989 86.079 26.8897 86.2197 27.0303C86.3603 27.171 86.5511 27.25 86.75 27.25H95.4395L92.219 30.469C92.1493 30.5387 92.094 30.6215 92.0562 30.7126C92.0185 30.8037 91.9991 30.9014 91.9991 31C91.9991 31.0986 92.0185 31.1963 92.0562 31.2874C92.094 31.3785 92.1493 31.4613 92.219 31.531C92.2887 31.6007 92.3715 31.656 92.4626 31.6938C92.5537 31.7315 92.6514 31.7509 92.75 31.7509C92.8486 31.7509 92.9463 31.7315 93.0374 31.6938C93.1285 31.656 93.2113 31.6007 93.281 31.531L97.781 27.031C97.8508 26.9613 97.9063 26.8786 97.9441 26.7874C97.9819 26.6963 98.0013 26.5987 98.0013 26.5C98.0013 26.4013 97.9819 26.3037 97.9441 26.2125C97.9063 26.1214 97.8508 26.0387 97.781 25.969L93.281 21.469C93.2113 21.3993 93.1285 21.344 93.0374 21.3062C92.9463 21.2685 92.8486 21.2491 92.75 21.2491C92.6514 21.2491 92.5537 21.2685 92.4626 21.3062C92.3715 21.344 92.2887 21.3993 92.219 21.469C92.1493 21.5387 92.094 21.6215 92.0562 21.7126C92.0185 21.8037 91.9991 21.9014 91.9991 22C91.9991 22.0986 92.0185 22.1963 92.0562 22.2874C92.094 22.3785 92.1493 22.4613 92.219 22.531L95.4395 25.75H86.75Z" fill="white"/>
</g>
<defs>
<clipPath id="clip0_46_2883">
<rect width="24" height="24" fill="white" transform="translate(80 14.5)"/>
</clipPath>
</defs>
</svg>
